<svg id="drawing" xmlns="http://www.w3.org/2000/svg" version="1.1" xmlns:xlink="http://www.w3.org/1999/xlink" width="692.5" height="1619" viewBox="165.5 47 692.5 1619"><defs id="SvgjsDefs1295"><marker id="SvgjsMarker1424" markerWidth="16.23606797749979" markerHeight="10.550836550532098" refX="-1" refY="3.8990363547948754" viewBox="-1 -1.3763819204711738 16.23606797749979 10.550836550532098" orient="auto" markerUnits="userSpaceOnUse"><path id="SvgjsPath1425" d="M12 3.899036407470703L0 7.798072814941406V0Z " stroke="#323232" stroke-width="2" fill="#323232" transform="matrix(1,0,0,1,0,0)"></path></marker></defs><g id="SvgjsG1296"><path id="SvgjsPath1297" d="M165.5 47H858V1666H165.5V47Z " fill-opacity="1" fill="#ffffff"></path><g id="SvgjsG1298"><g id="SvgjsG1299" transform="translate(186 67)" opacity="1"><path id="SvgjsPath1300" d="M0 0L652 0L652 301L0 301Z " stroke-dasharray="none" stroke="#323232" stroke-width="2" fill="none" opacity="1"></path><path id="SvgjsPath1301" d="M0 0L652 0L652 40L0 40Z " stroke-dasharray="none" stroke="#323232" stroke-width="2" fill="#e5ccff" opacity="1"></path><g id="SvgjsG1302" transform="matrix(1 0 0 1 10 10)" fill="#ffffff"><text id="SvgjsText1303" font-family="Arial,宋体" fill="#323232" font-size="16" font-weight="bold" font-style="italic" text-anchor="start" text-decoration="blink" x="0" y="14.5">200 OK (第一次请求)</text></g></g><g id="SvgjsG1304" transform="translate(186 107)" opacity="1"><path id="SvgjsPath1305" d="M0 0L137 0L137 261L0 261Z " stroke-dasharray="none" stroke="#323232" stroke-width="2" fill="none" opacity="1"></path><path id="SvgjsPath1306" d="M0 0L137 0L137 30L0 30Z " stroke-dasharray="none" stroke="#323232" stroke-width="2" fill="#cce5ff" opacity="1"></path><g id="SvgjsG1307" transform="matrix(1 0 0 1 10 6.875)" fill="#ffffff"><text id="SvgjsText1308" font-family="Arial,宋体" fill="#323232" font-size="13" font-weight="bold" font-style="italic" text-anchor="middle" text-decoration="blink" x="58.5" y="12">游览器</text></g></g><g id="SvgjsG1309" transform="translate(323 107)" opacity="1"><path id="SvgjsPath1310" d="M0 0L145 0L145 261L0 261Z " stroke-dasharray="none" stroke="#323232" stroke-width="2" fill="none" opacity="1"></path><path id="SvgjsPath1311" d="M0 0L145 0L145 30L0 30Z " stroke-dasharray="none" stroke="#323232" stroke-width="2" fill="#ff99cc" opacity="1"></path><g id="SvgjsG1312" transform="matrix(1 0 0 1 10 6.875)" fill="#ffffff"><text id="SvgjsText1313" font-family="Arial,宋体" fill="#323232" font-size="13" font-weight="bold" font-style="italic" text-anchor="middle" text-decoration="blink" x="62.5" y="12">缓存</text></g></g><g id="SvgjsG1314" transform="translate(468 107)" opacity="1"><path id="SvgjsPath1315" d="M0 0L234 0L234 261L0 261Z " stroke-dasharray="none" stroke="#323232" stroke-width="2" fill="none" opacity="1"></path><path id="SvgjsPath1316" d="M0 0L234 0L234 30L0 30Z " stroke-dasharray="none" stroke="#323232" stroke-width="2" fill="#ccff99" opacity="1"></path></g><g id="SvgjsG1317" transform="translate(702 107)" opacity="1"><path id="SvgjsPath1318" d="M0 0L136 0L136 261L0 261Z " stroke-dasharray="none" stroke="#323232" stroke-width="2" fill="none" opacity="1"></path><path id="SvgjsPath1319" d="M0 0L136 0L136 30L0 30Z " stroke-dasharray="none" stroke="#323232" stroke-width="2" fill="#ffcc99" opacity="1"></path><g id="SvgjsG1320" transform="matrix(1 0 0 1 10 6.875)" fill="#ffffff"><text id="SvgjsText1321" font-family="Arial,宋体" fill="#323232" font-size="13" font-weight="bold" font-style="italic" text-anchor="middle" text-decoration="blink" x="58" y="12">服务器</text></g></g><g id="SvgjsG1322" transform="translate(341 223)" opacity="1"><g id="SvgjsG1323" transform="matrix(1 0 0 1 0 10.375)" fill="#ffffff"><text id="SvgjsText1324" font-family="微软雅黑,黑体,Arial,宋体" fill="#000000" font-size="13" font-weight="normal" font-style="normal" text-anchor="middle" text-decoration="blink" x="58" y="12">缓存：无</text></g></g><g id="SvgjsG1325" transform="translate(173 169)" opacity="1"><g id="SvgjsG1326" transform="matrix(1 0 0 1 0 3.75)" fill="#ffffff"><text id="SvgjsText1327" font-family="微软雅黑,黑体,Arial,宋体" fill="#ff3333" font-size="13" font-weight="bold" font-style="normal" text-anchor="middle" text-decoration="blink" x="80" y="12">GET：</text><text id="SvgjsText1328" font-family="微软雅黑,黑体,Arial,宋体" fill="#ff3333" font-size="13" font-weight="bold" font-style="normal" text-anchor="middle" text-decoration="blink" x="80" y="28.25">index.htnl</text></g></g><g id="SvgjsG1329" transform="translate(295 174)" opacity="1"><path id="SvgjsPath1330" d="M0 8.25L55.5 8.25L55.5 0L68 12.5L55.5 25L55.5 16.75L0 16.75L0 8.25Z " stroke-dasharray="none" stroke="#323232" stroke-width="2" fill="#ffffff" opacity="1"></path></g><g id="SvgjsG1331" transform="translate(717 221.5)" opacity="1"><g id="SvgjsG1332" transform="matrix(1 0 0 1 0 11.875)" fill="#ffffff"><text id="SvgjsText1333" font-family="微软雅黑,黑体,Arial,宋体" fill="#000000" font-size="13" font-weight="normal" font-style="normal" text-anchor="middle" text-decoration="blink" x="60.5" y="12">服务器：0分0秒</text></g></g><g id="SvgjsG1334" transform="translate(481 174)" opacity="1"><path id="SvgjsPath1335" d="M0 8.25L188.5 8.25L188.5 0L201 12.5L188.5 25L188.5 16.75L0 16.75L0 8.25Z " stroke-dasharray="none" stroke="#323232" stroke-width="2" fill="#ffffff" opacity="1"></path></g><g id="SvgjsG1336" transform="translate(499 147)" opacity="1"><g id="SvgjsG1337" transform="matrix(1 0 0 1 0 3.75)" fill="#ffffff"><text id="SvgjsText1338" font-family="微软雅黑,黑体,Arial,宋体" fill="#ff3333" font-size="13" font-weight="bold" font-style="normal" text-anchor="middle" text-decoration="blink" x="80" y="12">GET：</text><text id="SvgjsText1339" font-family="微软雅黑,黑体,Arial,宋体" fill="#ff3333" font-size="13" font-weight="bold" font-style="normal" text-anchor="middle" text-decoration="blink" x="80" y="28.25">index.htnl</text></g></g><g id="SvgjsG1340" transform="translate(489 252)" opacity="1"><path id="SvgjsPath1341" d="M0 14.5L14.5 0L14.5 9.569999694824219L200 9.569999694824219L200 19.43000030517578L14.5 19.43000030517578L14.5 29L0 14.5Z " stroke-dasharray="none" stroke="#323232" stroke-width="2" fill="#ffffff" opacity="1"></path></g><g id="SvgjsG1342" transform="translate(499 299)" opacity="1"><g id="SvgjsG1343" transform="matrix(1 0 0 1 0 -20.625)" fill="#ffffff"><text id="SvgjsText1344" font-family="微软雅黑,黑体,Arial,宋体" fill="#ff3333" font-size="13" font-weight="normal" font-style="normal" text-anchor="middle" text-decoration="blink" x="80" y="12">200</text><text id="SvgjsText1345" font-family="微软雅黑,黑体,Arial,宋体" fill="#ff3333" font-size="13" font-weight="normal" font-style="normal" text-anchor="middle" text-decoration="blink" x="80" y="28.25">过期时间：5s</text><text id="SvgjsText1346" font-family="微软雅黑,黑体,Arial,宋体" fill="#ff3333" font-size="13" font-weight="normal" font-style="normal" text-anchor="middle" text-decoration="blink" x="80" y="44.5">修改时间：0分0秒</text><text id="SvgjsText1347" font-family="微软雅黑,黑体,Arial,宋体" fill="#ff3333" font-size="13" font-weight="normal" font-style="normal" text-anchor="middle" text-decoration="blink" x="80" y="60.75">Etag: aaaa</text><text id="SvgjsText1348" font-family="微软雅黑,黑体,Arial,宋体" fill="#ff3333" font-size="13" font-weight="normal" font-style="normal" text-anchor="middle" text-decoration="blink" x="80" y="77">index.html内容</text></g></g><g id="SvgjsG1349" transform="translate(295 314.5)" opacity="1"><path id="SvgjsPath1350" d="M0 14.5L14.5 0L14.5 9.569999694824219L200 9.569999694824219L200 19.43000030517578L14.5 19.43000030517578L14.5 29L0 14.5Z " stroke-dasharray="none" stroke="#323232" stroke-width="2" fill="#ffffff" opacity="1"></path></g><g id="SvgjsG1351" transform="translate(190 311)" opacity="1"><g id="SvgjsG1352" transform="matrix(1 0 0 1 0 9.875)" fill="#ffffff"><text id="SvgjsText1353" font-family="微软雅黑,黑体,Arial,宋体" fill="#ff3333" font-size="13" font-weight="normal" font-style="normal" text-anchor="middle" text-decoration="blink" x="52.5" y="12"> 200 ok</text></g></g><g id="SvgjsG1354" transform="translate(445 376)" opacity="1"><path id="SvgjsPath1355" d="M15.015000343322754 0L30.485000610351562 0L30.485000610351562 55.25L45.5 55.25L22.75 78L0 55.25L15.015000343322754 55.25L15.015000343322754 0Z " stroke-dasharray="none" stroke="#323232" stroke-width="2" fill="#ffffff" opacity="1"></path></g><g id="SvgjsG1356" transform="translate(425 390)" opacity="1"><g id="SvgjsG1357" transform="matrix(1 0 0 1 0 11.875)" fill="#ffffff"><text id="SvgjsText1358" font-family="微软雅黑,黑体,Arial,宋体" fill="#ff3333" font-size="13" font-weight="normal" font-style="normal" text-anchor="middle" text-decoration="blink" x="80" y="12">2秒</text></g></g><g id="SvgjsG1359" transform="translate(185.5 467)" opacity="1"><path id="SvgjsPath1360" d="M0 0L651.5 0L651.5 311L0 311Z " stroke-dasharray="none" stroke="#323232" stroke-width="2" fill="none" opacity="1"></path><path id="SvgjsPath1361" d="M0 0L651.5 0L651.5 40L0 40Z " stroke-dasharray="none" stroke="#323232" stroke-width="2" fill="#e5ccff" opacity="1"></path><g id="SvgjsG1362" transform="matrix(1 0 0 1 10 10)" fill="#ffffff"><text id="SvgjsText1363" font-family="Arial,宋体" fill="#323232" font-size="16" font-weight="bold" font-style="italic" text-anchor="start" text-decoration="blink" x="0" y="14.5">200 OK (form cache) (第二次请求)</text></g></g><g id="SvgjsG1364" transform="translate(185.5 507)" opacity="1"><path id="SvgjsPath1365" d="M0 0L137 0L137 271L0 271Z " stroke-dasharray="none" stroke="#323232" stroke-width="2" fill="none" opacity="1"></path><path id="SvgjsPath1366" d="M0 0L137 0L137 30L0 30Z " stroke-dasharray="none" stroke="#323232" stroke-width="2" fill="#cce5ff" opacity="1"></path><g id="SvgjsG1367" transform="matrix(1 0 0 1 10 6.875)" fill="#ffffff"><text id="SvgjsText1368" font-family="Arial,宋体" fill="#323232" font-size="13" font-weight="bold" font-style="italic" text-anchor="middle" text-decoration="blink" x="58.5" y="12">游览器</text></g></g><g id="SvgjsG1369" transform="translate(322.5 507)" opacity="1"><path id="SvgjsPath1370" d="M0 0L249.5 0L249.5 271L0 271Z " stroke-dasharray="none" stroke="#323232" stroke-width="2" fill="none" opacity="1"></path><path id="SvgjsPath1371" d="M0 0L249.5 0L249.5 30L0 30Z " stroke-dasharray="none" stroke="#323232" stroke-width="2" fill="#ff99cc" opacity="1"></path><g id="SvgjsG1372" transform="matrix(1 0 0 1 10 6.875)" fill="#ffffff"><text id="SvgjsText1373" font-family="Arial,宋体" fill="#323232" font-size="13" font-weight="bold" font-style="italic" text-anchor="middle" text-decoration="blink" x="114.75" y="12">缓存</text></g></g><g id="SvgjsG1374" transform="translate(572 507)" opacity="1"><path id="SvgjsPath1375" d="M0 0L129 0L129 271L0 271Z " stroke-dasharray="none" stroke="#323232" stroke-width="2" fill="none" opacity="1"></path><path id="SvgjsPath1376" d="M0 0L129 0L129 30L0 30Z " stroke-dasharray="none" stroke="#323232" stroke-width="2" fill="#ccff99" opacity="1"></path></g><g id="SvgjsG1377" transform="translate(701 507)" opacity="1"><path id="SvgjsPath1378" d="M0 0L136 0L136 271L0 271Z " stroke-dasharray="none" stroke="#323232" stroke-width="2" fill="none" opacity="1"></path><path id="SvgjsPath1379" d="M0 0L136 0L136 30L0 30Z " stroke-dasharray="none" stroke="#323232" stroke-width="2" fill="#ffcc99" opacity="1"></path><g id="SvgjsG1380" transform="matrix(1 0 0 1 10 6.875)" fill="#ffffff"><text id="SvgjsText1381" font-family="Arial,宋体" fill="#323232" font-size="13" font-weight="bold" font-style="italic" text-anchor="middle" text-decoration="blink" x="58" y="12">服务器</text></g></g><g id="SvgjsG1382" transform="translate(360.5 643)" opacity="1"><g id="SvgjsG1383" transform="matrix(1 0 0 1 0 -14)" fill="#ffffff"><text id="SvgjsText1384" font-family="微软雅黑,黑体,Arial,宋体" fill="#000000" font-size="13" font-weight="normal" font-style="normal" text-anchor="middle" text-decoration="blink" x="58" y="12">缓存：index.html</text><text id="SvgjsText1385" font-family="微软雅黑,黑体,Arial,宋体" fill="#000000" font-size="13" font-weight="normal" font-style="normal" text-anchor="middle" text-decoration="blink" x="58" y="28.25">过期时间：5s</text><text id="SvgjsText1386" font-family="微软雅黑,黑体,Arial,宋体" fill="#000000" font-size="13" font-weight="normal" font-style="normal" text-anchor="middle" text-decoration="blink" x="58" y="44.5">修改时间：0分0秒</text><text id="SvgjsText1387" font-family="微软雅黑,黑体,Arial,宋体" fill="#000000" font-size="13" font-weight="normal" font-style="normal" text-anchor="middle" text-decoration="blink" x="58" y="60.75">Etag: aaaa</text></g></g><g id="SvgjsG1388" transform="translate(172.5 579)" opacity="1"><g id="SvgjsG1389" transform="matrix(1 0 0 1 0 3.75)" fill="#ffffff"><text id="SvgjsText1390" font-family="微软雅黑,黑体,Arial,宋体" fill="#ff3333" font-size="13" font-weight="bold" font-style="normal" text-anchor="middle" text-decoration="blink" x="80" y="12">GET：</text><text id="SvgjsText1391" font-family="微软雅黑,黑体,Arial,宋体" fill="#ff3333" font-size="13" font-weight="bold" font-style="normal" text-anchor="middle" text-decoration="blink" x="80" y="28.25">index.htnl</text></g></g><g id="SvgjsG1392" transform="translate(294.5 584)" opacity="1"><path id="SvgjsPath1393" d="M0 9.239999771118164L130.5 9.239999771118164L130.5 0L144.5 14L130.5 28L130.5 18.760000228881836L0 18.760000228881836L0 9.239999771118164Z " stroke-dasharray="none" stroke="#323232" stroke-width="2" fill="#ffffff" opacity="1"></path></g><g id="SvgjsG1394" transform="translate(716.5 631.5)" opacity="1"><g id="SvgjsG1395" transform="matrix(1 0 0 1 0 11.875)" fill="#ffffff"><text id="SvgjsText1396" font-family="微软雅黑,黑体,Arial,宋体" fill="#000000" font-size="13" font-weight="normal" font-style="normal" text-anchor="middle" text-decoration="blink" x="60.5" y="12">服务器：0分2秒</text></g></g><g id="SvgjsG1397" transform="translate(294.5 724.5)" opacity="1"><path id="SvgjsPath1398" d="M0 14.5L14.5 0L14.5 9.569999694824219L162 9.569999694824219L162 19.43000030517578L14.5 19.43000030517578L14.5 29L0 14.5Z " stroke-dasharray="none" stroke="#323232" stroke-width="2" fill="#ffffff" opacity="1"></path></g><g id="SvgjsG1399" transform="translate(189.5 721)" opacity="1"><g id="SvgjsG1400" transform="matrix(1 0 0 1 0 1.75)" fill="#ffffff"><text id="SvgjsText1401" font-family="微软雅黑,黑体,Arial,宋体" fill="#ff3333" font-size="13" font-weight="normal" font-style="normal" text-anchor="middle" text-decoration="blink" x="52.5" y="12"> 200 ok(form cach</text><text id="SvgjsText1402" font-family="微软雅黑,黑体,Arial,宋体" fill="#ff3333" font-size="13" font-weight="normal" font-style="normal" text-anchor="middle" text-decoration="blink" x="52.5" y="28.25">e)</text></g></g><g id="SvgjsG1403" transform="translate(445 786)" opacity="1"><path id="SvgjsPath1404" d="M15.015000343322754 0L30.485000610351562 0L30.485000610351562 55.25L45.5 55.25L22.75 78L0 55.25L15.015000343322754 55.25L15.015000343322754 0Z " stroke-dasharray="none" stroke="#323232" stroke-width="2" fill="#ffffff" opacity="1"></path></g><g id="SvgjsG1405" transform="translate(425 800)" opacity="1"><g id="SvgjsG1406" transform="matrix(1 0 0 1 0 11.875)" fill="#ffffff"><text id="SvgjsText1407" font-family="微软雅黑,黑体,Arial,宋体" fill="#ff3333" font-size="13" font-weight="normal" font-style="normal" text-anchor="middle" text-decoration="blink" x="80" y="12">4秒时</text></g></g><g id="SvgjsG1408" transform="translate(445 1196)" opacity="1"><path id="SvgjsPath1409" d="M15.015000343322754 0L30.485000610351562 0L30.485000610351562 55.25L45.5 55.25L22.75 78L0 55.25L15.015000343322754 55.25L15.015000343322754 0Z " stroke-dasharray="none" stroke="#323232" stroke-width="2" fill="#ffffff" opacity="1"></path></g><g id="SvgjsG1410" transform="translate(461 1208)" opacity="1"><g id="SvgjsG1411" transform="matrix(1 0 0 1 0 11.875)" fill="#ffffff"><text id="SvgjsText1412" font-family="微软雅黑,黑体,Arial,宋体" fill="#ff3333" font-size="13" font-weight="normal" font-style="normal" text-anchor="middle" text-decoration="blink" x="80" y="12">6秒时，内容被修改</text></g></g><g id="SvgjsG1413" transform="translate(289 561)" opacity="1"><g id="SvgjsG1414" transform="matrix(1 0 0 1 0 11.875)" fill="#ffffff"><text id="SvgjsText1415" font-family="微软雅黑,黑体,Arial,宋体" fill="#ff3333" font-size="13" font-weight="normal" font-style="normal" text-anchor="middle" text-decoration="blink" x="80" y="12">命中缓存</text></g></g><g id="SvgjsG1416" transform="translate(438 577)" opacity="1"><path id="SvgjsPath1417" d="M0 21L67 0L134 21L67 42Z " stroke-dasharray="none" stroke="#323232" stroke-width="2" fill="#ffffff" opacity="1"></path><g id="SvgjsG1418" transform="matrix(1 0 0 1 10 13.085)" fill="#ffffff"><text id="SvgjsText1419" font-family="微软雅黑,黑体,Arial,宋体" fill="#ff3333" font-size="13" font-weight="normal" font-style="normal" text-anchor="middle" text-decoration="blink" x="57" y="12">过期时间到了没</text></g></g><g id="SvgjsG1420" transform="translate(490.75 619)" opacity="1"><path id="SvgjsPath1421" d="M9.404999732971191 0L19.094999313354492 0L19.094999313354492 94.75L28.5 94.75L14.25 109L0 94.75L9.404999732971191 94.75L9.404999732971191 0Z " stroke-dasharray="none" stroke="#323232" stroke-width="2" fill="#ffffff" opacity="1"></path></g><g id="SvgjsG1422"><path id="SvgjsPath1423" d="M505 728L505 739L471.7360534667969 739 " stroke-dasharray="none" stroke="#323232" stroke-width="2" fill="none" marker-end="url(#SvgjsMarker1424)"></path><g id="SvgjsG1426" transform="matrix(1 0 0 1 493.86803398874986 730.875)" fill="#ffffff"><path id="SvgjsPath1427" d="M0 0H0V0H0V0Z " fill="#ffffff" transform="translate(0 0)"></path><text id="SvgjsText1428" font-family="Microsoft Yahei,宋体" fill="#000000" font-size="13" font-weight="normal" font-style="normal" text-anchor="middle" text-decoration="blink" x="0" y="0"></text></g></g><g id="SvgjsG1429" transform="translate(454 653.5)" opacity="1"><g id="SvgjsG1430" transform="matrix(1 0 0 1 0 11.875)" fill="#ffffff"><text id="SvgjsText1431" font-family="微软雅黑,黑体,Arial,宋体" fill="#ff3333" font-size="13" font-weight="normal" font-style="normal" text-anchor="middle" text-decoration="blink" x="80" y="12">没过期</text></g></g><g id="SvgjsG1432" transform="translate(185.5 877)" opacity="1"><path id="SvgjsPath1433" d="M0 0L651.5 0L651.5 311L0 311Z " stroke-dasharray="none" stroke="#323232" stroke-width="2" fill="none" opacity="1"></path><path id="SvgjsPath1434" d="M0 0L651.5 0L651.5 40L0 40Z " stroke-dasharray="none" stroke="#323232" stroke-width="2" fill="#e5ccff" opacity="1"></path><g id="SvgjsG1435" transform="matrix(1 0 0 1 10 10)" fill="#ffffff"><text id="SvgjsText1436" font-family="Arial,宋体" fill="#323232" font-size="16" font-weight="bold" font-style="italic" text-anchor="start" text-decoration="blink" x="0" y="14.5">304 Not Modified (第三次请求)</text></g></g><g id="SvgjsG1437" transform="translate(185.5 917)" opacity="1"><path id="SvgjsPath1438" d="M0 0L137 0L137 271L0 271Z " stroke-dasharray="none" stroke="#323232" stroke-width="2" fill="none" opacity="1"></path><path id="SvgjsPath1439" d="M0 0L137 0L137 30L0 30Z " stroke-dasharray="none" stroke="#323232" stroke-width="2" fill="#cce5ff" opacity="1"></path><g id="SvgjsG1440" transform="matrix(1 0 0 1 10 6.875)" fill="#ffffff"><text id="SvgjsText1441" font-family="Arial,宋体" fill="#323232" font-size="13" font-weight="bold" font-style="italic" text-anchor="middle" text-decoration="blink" x="58.5" y="12">游览器</text></g></g><g id="SvgjsG1442" transform="translate(322.5 917)" opacity="1"><path id="SvgjsPath1443" d="M0 0L249.5 0L249.5 271L0 271Z " stroke-dasharray="none" stroke="#323232" stroke-width="2" fill="none" opacity="1"></path><path id="SvgjsPath1444" d="M0 0L249.5 0L249.5 30L0 30Z " stroke-dasharray="none" stroke="#323232" stroke-width="2" fill="#ff99cc" opacity="1"></path><g id="SvgjsG1445" transform="matrix(1 0 0 1 10 6.875)" fill="#ffffff"><text id="SvgjsText1446" font-family="Arial,宋体" fill="#323232" font-size="13" font-weight="bold" font-style="italic" text-anchor="middle" text-decoration="blink" x="114.75" y="12">缓存</text></g></g><g id="SvgjsG1447" transform="translate(572 917)" opacity="1"><path id="SvgjsPath1448" d="M0 0L129 0L129 271L0 271Z " stroke-dasharray="none" stroke="#323232" stroke-width="2" fill="none" opacity="1"></path><path id="SvgjsPath1449" d="M0 0L129 0L129 30L0 30Z " stroke-dasharray="none" stroke="#323232" stroke-width="2" fill="#ccff99" opacity="1"></path></g><g id="SvgjsG1450" transform="translate(701 917)" opacity="1"><path id="SvgjsPath1451" d="M0 0L136 0L136 271L0 271Z " stroke-dasharray="none" stroke="#323232" stroke-width="2" fill="none" opacity="1"></path><path id="SvgjsPath1452" d="M0 0L136 0L136 30L0 30Z " stroke-dasharray="none" stroke="#323232" stroke-width="2" fill="#ffcc99" opacity="1"></path><g id="SvgjsG1453" transform="matrix(1 0 0 1 10 6.875)" fill="#ffffff"><text id="SvgjsText1454" font-family="Arial,宋体" fill="#323232" font-size="13" font-weight="bold" font-style="italic" text-anchor="middle" text-decoration="blink" x="58" y="12">服务器</text></g></g><g id="SvgjsG1455" transform="translate(360.5 1053)" opacity="1"><g id="SvgjsG1456" transform="matrix(1 0 0 1 0 -14)" fill="#ffffff"><text id="SvgjsText1457" font-family="微软雅黑,黑体,Arial,宋体" fill="#ff3333" font-size="13" font-weight="normal" font-style="normal" text-anchor="middle" text-decoration="blink" x="58" y="12">缓存：index.html</text><text id="SvgjsText1458" font-family="微软雅黑,黑体,Arial,宋体" fill="#ff3333" font-size="13" font-weight="normal" font-style="normal" text-anchor="middle" text-decoration="blink" x="58" y="28.25">过期时间：5s</text><text id="SvgjsText1459" font-family="微软雅黑,黑体,Arial,宋体" fill="#ff3333" font-size="13" font-weight="normal" font-style="normal" text-anchor="middle" text-decoration="blink" x="58" y="44.5">修改时间：0分0秒</text><text id="SvgjsText1460" font-family="微软雅黑,黑体,Arial,宋体" fill="#ff3333" font-size="13" font-weight="normal" font-style="normal" text-anchor="middle" text-decoration="blink" x="58" y="60.75">Etag: aaaa</text></g></g><g id="SvgjsG1461" transform="translate(172.5 989)" opacity="1"><g id="SvgjsG1462" transform="matrix(1 0 0 1 0 3.75)" fill="#ffffff"><text id="SvgjsText1463" font-family="微软雅黑,黑体,Arial,宋体" fill="#ff3333" font-size="13" font-weight="bold" font-style="normal" text-anchor="middle" text-decoration="blink" x="80" y="12">GET：</text><text id="SvgjsText1464" font-family="微软雅黑,黑体,Arial,宋体" fill="#ff3333" font-size="13" font-weight="bold" font-style="normal" text-anchor="middle" text-decoration="blink" x="80" y="28.25">index.htnl</text></g></g><g id="SvgjsG1465" transform="translate(294.5 994)" opacity="1"><path id="SvgjsPath1466" d="M0 9.239999771118164L130.5 9.239999771118164L130.5 0L144.5 14L130.5 28L130.5 18.760000228881836L0 18.760000228881836L0 9.239999771118164Z " stroke-dasharray="none" stroke="#323232" stroke-width="2" fill="#ffffff" opacity="1"></path></g><g id="SvgjsG1467" transform="translate(716.5 1041.5)" opacity="1"><g id="SvgjsG1468" transform="matrix(1 0 0 1 0 11.875)" fill="#ffffff"><text id="SvgjsText1469" font-family="微软雅黑,黑体,Arial,宋体" fill="#000000" font-size="13" font-weight="normal" font-style="normal" text-anchor="middle" text-decoration="blink" x="60.5" y="12">服务器：0分4秒</text></g></g><g id="SvgjsG1470" transform="translate(294.5 1134.5)" opacity="1"><path id="SvgjsPath1471" d="M0 12.25L12.25 0L12.25 8.085000038146973L287.5 8.085000038146973L287.5 16.415000915527344L12.25 16.415000915527344L12.25 24.5L0 12.25Z " stroke-dasharray="none" stroke="#323232" stroke-width="2" fill="#ffffff" opacity="1"></path></g><g id="SvgjsG1472" transform="translate(189.5 1131)" opacity="1"><g id="SvgjsG1473" transform="matrix(1 0 0 1 0 9.875)" fill="#ffffff"><text id="SvgjsText1474" font-family="微软雅黑,黑体,Arial,宋体" fill="#ff3333" font-size="13" font-weight="normal" font-style="normal" text-anchor="middle" text-decoration="blink" x="52.5" y="12">304 Not Modified</text></g></g><g id="SvgjsG1475" transform="translate(289 971)" opacity="1"><g id="SvgjsG1476" transform="matrix(1 0 0 1 0 11.875)" fill="#ffffff"><text id="SvgjsText1477" font-family="微软雅黑,黑体,Arial,宋体" fill="#ff3333" font-size="13" font-weight="normal" font-style="normal" text-anchor="middle" text-decoration="blink" x="80" y="12">命中缓存</text></g></g><g id="SvgjsG1478" transform="translate(438 987)" opacity="1"><path id="SvgjsPath1479" d="M0 21L67 0L134 21L67 42Z " stroke-dasharray="none" stroke="#323232" stroke-width="2" fill="#ffffff" opacity="1"></path><g id="SvgjsG1480" transform="matrix(1 0 0 1 10 13.085)" fill="#ffffff"><text id="SvgjsText1481" font-family="微软雅黑,黑体,Arial,宋体" fill="#ff3333" font-size="13" font-weight="normal" font-style="normal" text-anchor="middle" text-decoration="blink" x="57" y="12">过期时间到了没</text></g></g><g id="SvgjsG1482" transform="translate(572 996.5)" opacity="1"><path id="SvgjsPath1483" d="M0 7.590000152587891L115.5 7.590000152587891L115.5 0L127 11.5L115.5 23L115.5 15.40999984741211L0 15.40999984741211L0 7.590000152587891Z " stroke-dasharray="none" stroke="#323232" stroke-width="2" fill="#ffffff" opacity="1"></path></g><g id="SvgjsG1484" transform="translate(555 956.5)" opacity="1"><g id="SvgjsG1485" transform="matrix(1 0 0 1 0 -4.375)" fill="#ffffff"><text id="SvgjsText1486" font-family="微软雅黑,黑体,Arial,宋体" fill="#ff3333" font-size="13" font-weight="normal" font-style="normal" text-anchor="middle" text-decoration="blink" x="80" y="12">GET :index.html</text><text id="SvgjsText1487" font-family="微软雅黑,黑体,Arial,宋体" fill="#ff3333" font-size="13" font-weight="normal" font-style="normal" text-anchor="middle" text-decoration="blink" x="80" y="28.25">修改时间：0分0秒</text><text id="SvgjsText1488" font-family="微软雅黑,黑体,Arial,宋体" fill="#ff3333" font-size="13" font-weight="normal" font-style="normal" text-anchor="middle" text-decoration="blink" x="80" y="44.5">Etag: aaaa</text></g></g><g id="SvgjsG1489" transform="translate(711 987.75)" opacity="1"><g id="SvgjsG1490" transform="matrix(1 0 0 1 0 4)" fill="#ffffff"><text id="SvgjsText1491" font-family="微软雅黑,黑体,Arial,宋体" fill="#ff3333" font-size="13" font-weight="bold" font-style="normal" text-anchor="middle" text-decoration="blink" x="58" y="12">Etag没有变化</text><text id="SvgjsText1492" font-family="微软雅黑,黑体,Arial,宋体" fill="#ff3333" font-size="13" font-weight="bold" font-style="normal" text-anchor="middle" text-decoration="blink" x="58" y="28.25">0分0秒后没有修改过</text></g></g><g id="SvgjsG1493" transform="translate(575 1074.5)" opacity="1"><path id="SvgjsPath1494" d="M0 14.75L14.75 0L14.75 9.734999656677246L127 9.734999656677246L127 19.764999389648438L14.75 19.764999389648438L14.75 29.5L0 14.75Z " stroke-dasharray="none" stroke="#323232" stroke-width="2" fill="#ffffff" opacity="1"></path></g><g id="SvgjsG1495" transform="translate(558.5 1123.5)" opacity="1"><g id="SvgjsG1496" transform="matrix(1 0 0 1 0 -12.5)" fill="#ffffff"><text id="SvgjsText1497" font-family="微软雅黑,黑体,Arial,宋体" fill="#ff3333" font-size="13" font-weight="normal" font-style="normal" text-anchor="middle" text-decoration="blink" x="80" y="12">304</text><text id="SvgjsText1498" font-family="微软雅黑,黑体,Arial,宋体" fill="#ff3333" font-size="13" font-weight="normal" font-style="normal" text-anchor="middle" text-decoration="blink" x="80" y="28.25">过期时间：5s</text><text id="SvgjsText1499" font-family="微软雅黑,黑体,Arial,宋体" fill="#ff3333" font-size="13" font-weight="normal" font-style="normal" text-anchor="middle" text-decoration="blink" x="80" y="44.5">修改时间：0分0秒</text><text id="SvgjsText1500" font-family="微软雅黑,黑体,Arial,宋体" fill="#ff3333" font-size="13" font-weight="normal" font-style="normal" text-anchor="middle" text-decoration="blink" x="80" y="60.75">Etag: aaaa</text></g></g><g id="SvgjsG1501" transform="translate(185.5 1287)" opacity="1"><path id="SvgjsPath1502" d="M0 0L651.5 0L651.5 359L0 359Z " stroke-dasharray="none" stroke="#323232" stroke-width="2" fill="none" opacity="1"></path><path id="SvgjsPath1503" d="M0 0L651.5 0L651.5 40L0 40Z " stroke-dasharray="none" stroke="#323232" stroke-width="2" fill="#e5ccff" opacity="1"></path><g id="SvgjsG1504" transform="matrix(1 0 0 1 10 10)" fill="#ffffff"><text id="SvgjsText1505" font-family="Arial,宋体" fill="#323232" font-size="16" font-weight="bold" font-style="italic" text-anchor="start" text-decoration="blink" x="0" y="14.5">200 ok (第四次请求)</text></g></g><g id="SvgjsG1506" transform="translate(185.5 1327)" opacity="1"><path id="SvgjsPath1507" d="M0 0L137 0L137 319L0 319Z " stroke-dasharray="none" stroke="#323232" stroke-width="2" fill="none" opacity="1"></path><path id="SvgjsPath1508" d="M0 0L137 0L137 30L0 30Z " stroke-dasharray="none" stroke="#323232" stroke-width="2" fill="#cce5ff" opacity="1"></path><g id="SvgjsG1509" transform="matrix(1 0 0 1 10 6.875)" fill="#ffffff"><text id="SvgjsText1510" font-family="Arial,宋体" fill="#323232" font-size="13" font-weight="bold" font-style="italic" text-anchor="middle" text-decoration="blink" x="58.5" y="12">游览器</text></g></g><g id="SvgjsG1511" transform="translate(322.5 1327)" opacity="1"><path id="SvgjsPath1512" d="M0 0L249.5 0L249.5 319L0 319Z " stroke-dasharray="none" stroke="#323232" stroke-width="2" fill="none" opacity="1"></path><path id="SvgjsPath1513" d="M0 0L249.5 0L249.5 30L0 30Z " stroke-dasharray="none" stroke="#323232" stroke-width="2" fill="#ff99cc" opacity="1"></path><g id="SvgjsG1514" transform="matrix(1 0 0 1 10 6.875)" fill="#ffffff"><text id="SvgjsText1515" font-family="Arial,宋体" fill="#323232" font-size="13" font-weight="bold" font-style="italic" text-anchor="middle" text-decoration="blink" x="114.75" y="12">缓存</text></g></g><g id="SvgjsG1516" transform="translate(572 1327)" opacity="1"><path id="SvgjsPath1517" d="M0 0L129 0L129 319L0 319Z " stroke-dasharray="none" stroke="#323232" stroke-width="2" fill="none" opacity="1"></path><path id="SvgjsPath1518" d="M0 0L129 0L129 30L0 30Z " stroke-dasharray="none" stroke="#323232" stroke-width="2" fill="#ccff99" opacity="1"></path></g><g id="SvgjsG1519" transform="translate(701 1327)" opacity="1"><path id="SvgjsPath1520" d="M0 0L136 0L136 319L0 319Z " stroke-dasharray="none" stroke="#323232" stroke-width="2" fill="none" opacity="1"></path><path id="SvgjsPath1521" d="M0 0L136 0L136 30L0 30Z " stroke-dasharray="none" stroke="#323232" stroke-width="2" fill="#ffcc99" opacity="1"></path><g id="SvgjsG1522" transform="matrix(1 0 0 1 10 6.875)" fill="#ffffff"><text id="SvgjsText1523" font-family="Arial,宋体" fill="#323232" font-size="13" font-weight="bold" font-style="italic" text-anchor="middle" text-decoration="blink" x="58" y="12">服务器</text></g></g><g id="SvgjsG1524" transform="translate(360.5 1463)" opacity="1"><g id="SvgjsG1525" transform="matrix(1 0 0 1 0 -14)" fill="#ffffff"><text id="SvgjsText1526" font-family="微软雅黑,黑体,Arial,宋体" fill="#ff3333" font-size="13" font-weight="normal" font-style="normal" text-anchor="middle" text-decoration="blink" x="58" y="12">缓存：index.html</text><text id="SvgjsText1527" font-family="微软雅黑,黑体,Arial,宋体" fill="#ff3333" font-size="13" font-weight="normal" font-style="normal" text-anchor="middle" text-decoration="blink" x="58" y="28.25">过期时间：5s</text><text id="SvgjsText1528" font-family="微软雅黑,黑体,Arial,宋体" fill="#ff3333" font-size="13" font-weight="normal" font-style="normal" text-anchor="middle" text-decoration="blink" x="58" y="44.5">修改时间：0分0秒</text><text id="SvgjsText1529" font-family="微软雅黑,黑体,Arial,宋体" fill="#ff3333" font-size="13" font-weight="normal" font-style="normal" text-anchor="middle" text-decoration="blink" x="58" y="60.75">Etag: aaaa</text></g></g><g id="SvgjsG1530" transform="translate(172.5 1399)" opacity="1"><g id="SvgjsG1531" transform="matrix(1 0 0 1 0 3.75)" fill="#ffffff"><text id="SvgjsText1532" font-family="微软雅黑,黑体,Arial,宋体" fill="#ff3333" font-size="13" font-weight="bold" font-style="normal" text-anchor="middle" text-decoration="blink" x="80" y="12">GET：</text><text id="SvgjsText1533" font-family="微软雅黑,黑体,Arial,宋体" fill="#ff3333" font-size="13" font-weight="bold" font-style="normal" text-anchor="middle" text-decoration="blink" x="80" y="28.25">index.htnl</text></g></g><g id="SvgjsG1534" transform="translate(294.5 1404)" opacity="1"><path id="SvgjsPath1535" d="M0 9.239999771118164L130.5 9.239999771118164L130.5 0L144.5 14L130.5 28L130.5 18.760000228881836L0 18.760000228881836L0 9.239999771118164Z " stroke-dasharray="none" stroke="#323232" stroke-width="2" fill="#ffffff" opacity="1"></path></g><g id="SvgjsG1536" transform="translate(716.5 1451.5)" opacity="1"><g id="SvgjsG1537" transform="matrix(1 0 0 1 0 11.875)" fill="#ffffff"><text id="SvgjsText1538" font-family="微软雅黑,黑体,Arial,宋体" fill="#000000" font-size="13" font-weight="normal" font-style="normal" text-anchor="middle" text-decoration="blink" x="60.5" y="12">服务器：0分6秒</text></g></g><g id="SvgjsG1539" transform="translate(297.5 1601.5)" opacity="1"><path id="SvgjsPath1540" d="M0 12.25L12.25 0L12.25 8.085000038146973L287.5 8.085000038146973L287.5 16.415000915527344L12.25 16.415000915527344L12.25 24.5L0 12.25Z " stroke-dasharray="none" stroke="#323232" stroke-width="2" fill="#ffffff" opacity="1"></path></g><g id="SvgjsG1541" transform="translate(200 1595.75)" opacity="1"><g id="SvgjsG1542" transform="matrix(1 0 0 1 0 9.875)" fill="#ffffff"><text id="SvgjsText1543" font-family="微软雅黑,黑体,Arial,宋体" fill="#ff3333" font-size="13" font-weight="normal" font-style="normal" text-anchor="middle" text-decoration="blink" x="52.5" y="12">200 OK</text></g></g><g id="SvgjsG1544" transform="translate(289 1381)" opacity="1"><g id="SvgjsG1545" transform="matrix(1 0 0 1 0 11.875)" fill="#ffffff"><text id="SvgjsText1546" font-family="微软雅黑,黑体,Arial,宋体" fill="#ff3333" font-size="13" font-weight="normal" font-style="normal" text-anchor="middle" text-decoration="blink" x="80" y="12">命中缓存</text></g></g><g id="SvgjsG1547" transform="translate(438 1397)" opacity="1"><path id="SvgjsPath1548" d="M0 21L67 0L134 21L67 42Z " stroke-dasharray="none" stroke="#323232" stroke-width="2" fill="#ffffff" opacity="1"></path><g id="SvgjsG1549" transform="matrix(1 0 0 1 10 13.085)" fill="#ffffff"><text id="SvgjsText1550" font-family="微软雅黑,黑体,Arial,宋体" fill="#ff3333" font-size="13" font-weight="normal" font-style="normal" text-anchor="middle" text-decoration="blink" x="57" y="12">过期时间到了没</text></g></g><g id="SvgjsG1551" transform="translate(572 1406.5)" opacity="1"><path id="SvgjsPath1552" d="M0 7.590000152587891L115.5 7.590000152587891L115.5 0L127 11.5L115.5 23L115.5 15.40999984741211L0 15.40999984741211L0 7.590000152587891Z " stroke-dasharray="none" stroke="#323232" stroke-width="2" fill="#ffffff" opacity="1"></path></g><g id="SvgjsG1553" transform="translate(555 1366.5)" opacity="1"><g id="SvgjsG1554" transform="matrix(1 0 0 1 0 -4.375)" fill="#ffffff"><text id="SvgjsText1555" font-family="微软雅黑,黑体,Arial,宋体" fill="#ff3333" font-size="13" font-weight="normal" font-style="normal" text-anchor="middle" text-decoration="blink" x="80" y="12">GET :index.html</text><text id="SvgjsText1556" font-family="微软雅黑,黑体,Arial,宋体" fill="#ff3333" font-size="13" font-weight="normal" font-style="normal" text-anchor="middle" text-decoration="blink" x="80" y="28.25">修改时间：0分0秒</text><text id="SvgjsText1557" font-family="微软雅黑,黑体,Arial,宋体" fill="#ff3333" font-size="13" font-weight="normal" font-style="normal" text-anchor="middle" text-decoration="blink" x="80" y="44.5">Etag: aaaa</text></g></g><g id="SvgjsG1558" transform="translate(711 1397.75)" opacity="1"><g id="SvgjsG1559" transform="matrix(1 0 0 1 0 4)" fill="#ffffff"><text id="SvgjsText1560" font-family="微软雅黑,黑体,Arial,宋体" fill="#ff3333" font-size="13" font-weight="bold" font-style="normal" text-anchor="middle" text-decoration="blink" x="58" y="12">Etag发生变化</text><text id="SvgjsText1561" font-family="微软雅黑,黑体,Arial,宋体" fill="#ff3333" font-size="13" font-weight="bold" font-style="normal" text-anchor="middle" text-decoration="blink" x="58" y="28.25">00:06后被修改过</text></g></g><g id="SvgjsG1562" transform="translate(571.5 1520)" opacity="1"><path id="SvgjsPath1563" d="M0 13L13 0L13 8.579999923706055L127 8.579999923706055L127 17.420000076293945L13 17.420000076293945L13 26L0 13Z " stroke-dasharray="none" stroke="#323232" stroke-width="2" fill="#ffffff" opacity="1"></path></g><g id="SvgjsG1564" transform="translate(563.5 1571.5)" opacity="1"><g id="SvgjsG1565" transform="matrix(1 0 0 1 0 -28.75)" fill="#ffffff"><text id="SvgjsText1566" font-family="微软雅黑,黑体,Arial,宋体" fill="#ff3333" font-size="13" font-weight="normal" font-style="normal" text-anchor="middle" text-decoration="blink" x="80" y="12">200</text><text id="SvgjsText1567" font-family="微软雅黑,黑体,Arial,宋体" fill="#ff3333" font-size="13" font-weight="normal" font-style="normal" text-anchor="middle" text-decoration="blink" x="80" y="28.25">过期时间：5s</text><text id="SvgjsText1568" font-family="微软雅黑,黑体,Arial,宋体" fill="#ff3333" font-size="13" font-weight="normal" font-style="normal" text-anchor="middle" text-decoration="blink" x="80" y="44.5">修改时间：0分6秒</text><text id="SvgjsText1569" font-family="微软雅黑,黑体,Arial,宋体" fill="#ff3333" font-size="13" font-weight="normal" font-style="normal" text-anchor="middle" text-decoration="blink" x="80" y="60.75">Etag:bbb</text><text id="SvgjsText1570" font-family="微软雅黑,黑体,Arial,宋体" fill="#ff3333" font-size="13" font-weight="normal" font-style="normal" text-anchor="middle" text-decoration="blink" x="80" y="77">index.html内容</text><text id="SvgjsText1571" font-family="微软雅黑,黑体,Arial,宋体" fill="#ff3333" font-size="13" font-weight="normal" font-style="normal" text-anchor="middle" text-decoration="blink" x="80" y="81.25"></text></g></g><g id="SvgjsG1572" transform="translate(420.25 1551)" opacity="1"><g id="SvgjsG1573" transform="matrix(1 0 0 1 0 -14)" fill="#ffffff"><text id="SvgjsText1574" font-family="微软雅黑,黑体,Arial,宋体" fill="#000000" font-size="13" font-weight="normal" font-style="normal" text-anchor="middle" text-decoration="blink" x="58" y="12">index.html</text><text id="SvgjsText1575" font-family="微软雅黑,黑体,Arial,宋体" fill="#000000" font-size="13" font-weight="normal" font-style="normal" text-anchor="middle" text-decoration="blink" x="58" y="28.25">过期时间：5s</text><text id="SvgjsText1576" font-family="微软雅黑,黑体,Arial,宋体" fill="#000000" font-size="13" font-weight="normal" font-style="normal" text-anchor="middle" text-decoration="blink" x="58" y="44.5">修改时间：0分6秒</text><text id="SvgjsText1577" font-family="微软雅黑,黑体,Arial,宋体" fill="#000000" font-size="13" font-weight="normal" font-style="normal" text-anchor="middle" text-decoration="blink" x="58" y="60.75">Etag: bbbb</text></g></g><g id="SvgjsG1578" transform="translate(408 1520)" opacity="1"><path id="SvgjsPath1579" d="M15 0L30 15L20.100000381469727 15L20.100000381469727 90L9.899999618530273 90L9.899999618530273 15L0 15L15 0Z " stroke-dasharray="none" stroke="#323232" stroke-width="2" fill="#ffffff" opacity="1"></path></g><g id="SvgjsG1580" transform="translate(330.75 1539)" opacity="1"><g id="SvgjsG1581" transform="matrix(1 0 0 1 0 11.875)" fill="#ffffff"><text id="SvgjsText1582" font-family="微软雅黑,黑体,Arial,宋体" fill="#ff3333" font-size="13" font-weight="normal" font-style="normal" text-anchor="middle" text-decoration="blink" x="80" y="12">更新缓存</text></g></g></g></g></svg>